<svg width="28" height="27" viewBox="0 0 28 27" fill="none" xmlns="http://www.w3.org/2000/svg">
<mask id="path-1-outside-1_34_311" maskUnits="userSpaceOnUse" x="-0.224731" y="-0.0117188" width="28" height="27" fill="black">
<rect fill="white" x="-0.224731" y="-0.0117188" width="28" height="27"/>
<path fill-rule="evenodd" clip-rule="evenodd" d="M6.75177 1.3525C8.69223 1.13291 11.2044 0.988281 13.8753 0.988281C16.5462 0.988281 19.0583 1.13291 20.9988 1.3525C21.9667 1.46203 22.8115 1.59233 23.4711 1.73781C23.7996 1.81026 24.1029 1.89097 24.3619 1.98231C24.5852 2.06107 24.9076 2.19104 25.1723 2.42066C25.4223 2.63753 25.5701 2.91074 25.6486 3.07305L25.1766 3.28061L25.6486 3.07306C25.7389 3.25962 25.8119 3.46004 25.8719 3.64841C25.9923 4.02641 26.0986 4.47961 26.1923 4.94955C26.3812 5.89687 26.5474 7.05714 26.6765 8.14464C26.6873 8.23548 26.6978 8.32729 26.7081 8.42003C26.7257 8.50979 26.7357 8.60235 26.7378 8.69668C26.7789 9.09343 26.8154 9.50603 26.8467 9.93117C26.9285 11.04 26.9753 12.2401 26.9753 13.4799C26.9753 15.1929 26.8859 16.833 26.7378 18.2632C26.7357 18.3572 26.7257 18.4495 26.7082 18.539C26.6979 18.632 26.6873 18.724 26.6765 18.8151C26.5474 19.9025 26.3812 21.0627 26.1923 22.01C26.0986 22.4799 25.9923 22.9331 25.8719 23.3111C25.8119 23.4994 25.7388 23.6998 25.6486 23.8864C25.5701 24.0487 25.4223 24.3219 25.1723 24.5388L24.8324 24.1825L25.1723 24.5387C25.1723 24.5388 25.1723 24.5388 25.1723 24.5388C24.9076 24.7684 24.5852 24.8984 24.3619 24.9771C24.1029 25.0685 23.7996 25.1492 23.4711 25.2216C22.8115 25.3671 21.9667 25.4974 20.9988 25.6069C19.0583 25.8265 16.5462 25.9711 13.8753 25.9711C11.2044 25.9711 8.69223 25.8265 6.75177 25.6069C5.78384 25.4974 4.93903 25.3671 4.27946 25.2216C3.95098 25.1492 3.64765 25.0685 3.38864 24.9771C3.16524 24.8984 2.84287 24.7684 2.57816 24.5387C2.25439 24.2578 2.06927 23.8668 1.9674 23.6221C1.84799 23.3353 1.74682 23.0059 1.65941 22.6656C1.48361 21.9812 1.32943 21.1178 1.20138 20.1636C0.944409 18.2486 0.775269 15.8354 0.775269 13.4799C0.775269 12.24 0.822105 11.0398 0.903808 9.93113C1.01742 8.3893 1.19974 6.81262 1.42118 5.54868C1.53121 4.92059 1.65678 4.33543 1.79853 3.85843C1.8691 3.62097 1.9529 3.37865 2.05432 3.15905C2.1425 2.96811 2.3041 2.65849 2.57814 2.42074L2.92798 2.78738L2.57814 2.42074C2.84286 2.19107 3.16523 2.06108 3.38863 1.9823C3.64764 1.89097 3.95097 1.81026 4.27946 1.73781C4.93903 1.59233 5.78383 1.46203 6.75177 1.3525ZM25.676 8.54078C25.6654 8.44481 25.6546 8.34991 25.6434 8.25612L26.16 8.20038L25.6434 8.25612C25.5157 7.18032 25.3529 6.0475 25.1709 5.13476C25.0801 4.67968 24.982 4.26568 24.8771 3.93648L25.3745 3.79245L24.8771 3.93648C24.8247 3.77182 24.7674 3.61833 24.7045 3.48817C24.6425 3.36006 24.5652 3.23426 24.4727 3.15401L24.4726 3.15399C24.3613 3.05741 24.1952 2.98052 24.0013 2.91214C23.7983 2.84057 23.5411 2.77082 23.2368 2.70369C22.6276 2.56932 21.8235 2.44417 20.8762 2.33697C18.9814 2.12255 16.5106 1.97966 13.8753 1.97966C11.24 1.97966 8.7691 2.12255 6.87429 2.33697C5.92703 2.44417 5.12293 2.56932 4.51376 2.70369C4.20941 2.77082 3.95221 2.84057 3.74924 2.91214C3.55529 2.98054 3.38916 3.05743 3.27783 3.15402L3.27782 3.15403C3.17003 3.24755 3.0794 3.39929 3.00582 3.5586C2.93097 3.72067 2.86227 3.91524 2.79883 4.12871C2.67191 4.55581 2.55372 5.10084 2.44665 5.71203C2.23202 6.93715 2.05289 8.4813 1.94093 10.0006L1.42237 9.96587L1.94093 10.0006C1.86092 11.0864 1.81495 12.2633 1.81495 13.4799C1.81495 15.7951 1.98151 18.1662 2.23266 20.0378C2.35807 20.9724 2.50629 21.7954 2.66924 22.4297C2.7506 22.7465 2.83858 23.0278 2.93369 23.2562C3.0265 23.4791 3.14076 23.6865 3.27783 23.8054L2.928 24.1721L3.27783 23.8054C3.38916 23.902 3.55529 23.9789 3.74924 24.0473L3.56894 24.5122L3.74925 24.0473C3.95221 24.1189 4.2094 24.1886 4.51376 24.2557C5.12293 24.3901 5.92703 24.5153 6.87429 24.6224C8.7691 24.8369 11.24 24.9797 13.8753 24.9797C16.5106 24.9797 18.9814 24.8369 20.8763 24.6224C21.8235 24.5153 22.6276 24.3901 23.2368 24.2557C23.5411 24.1886 23.7983 24.1189 24.0013 24.0473C24.1952 23.9789 24.3613 23.902 24.4726 23.8054L24.4727 23.8054C24.5652 23.7252 24.6425 23.5994 24.7045 23.4713C24.7674 23.3411 24.8247 23.1876 24.8771 23.023L25.2858 23.1413L24.8771 23.023C24.982 22.6938 25.0801 22.2798 25.1709 21.8247C25.3529 20.912 25.5157 19.7793 25.6434 18.7036C25.6547 18.6082 25.6658 18.5116 25.6766 18.4139C25.6783 18.3984 25.6808 18.383 25.684 18.3677C25.693 18.3254 25.6981 18.2799 25.6985 18.2318C25.6986 18.2165 25.6994 18.2013 25.701 18.1862C25.8469 16.7846 25.9356 15.1696 25.9356 13.4799C25.9356 12.2649 25.8898 11.0895 25.8099 10.0049L25.676 8.54078Z"/>
</mask>
<path fill-rule="evenodd" clip-rule="evenodd" d="M6.75177 1.3525C8.69223 1.13291 11.2044 0.988281 13.8753 0.988281C16.5462 0.988281 19.0583 1.13291 20.9988 1.3525C21.9667 1.46203 22.8115 1.59233 23.4711 1.73781C23.7996 1.81026 24.1029 1.89097 24.3619 1.98231C24.5852 2.06107 24.9076 2.19104 25.1723 2.42066C25.4223 2.63753 25.5701 2.91074 25.6486 3.07305L25.1766 3.28061L25.6486 3.07306C25.7389 3.25962 25.8119 3.46004 25.8719 3.64841C25.9923 4.02641 26.0986 4.47961 26.1923 4.94955C26.3812 5.89687 26.5474 7.05714 26.6765 8.14464C26.6873 8.23548 26.6978 8.32729 26.7081 8.42003C26.7257 8.50979 26.7357 8.60235 26.7378 8.69668C26.7789 9.09343 26.8154 9.50603 26.8467 9.93117C26.9285 11.04 26.9753 12.2401 26.9753 13.4799C26.9753 15.1929 26.8859 16.833 26.7378 18.2632C26.7357 18.3572 26.7257 18.4495 26.7082 18.539C26.6979 18.632 26.6873 18.724 26.6765 18.8151C26.5474 19.9025 26.3812 21.0627 26.1923 22.01C26.0986 22.4799 25.9923 22.9331 25.8719 23.3111C25.8119 23.4994 25.7388 23.6998 25.6486 23.8864C25.5701 24.0487 25.4223 24.3219 25.1723 24.5388L24.8324 24.1825L25.1723 24.5387C25.1723 24.5388 25.1723 24.5388 25.1723 24.5388C24.9076 24.7684 24.5852 24.8984 24.3619 24.9771C24.1029 25.0685 23.7996 25.1492 23.4711 25.2216C22.8115 25.3671 21.9667 25.4974 20.9988 25.6069C19.0583 25.8265 16.5462 25.9711 13.8753 25.9711C11.2044 25.9711 8.69223 25.8265 6.75177 25.6069C5.78384 25.4974 4.93903 25.3671 4.27946 25.2216C3.95098 25.1492 3.64765 25.0685 3.38864 24.9771C3.16524 24.8984 2.84287 24.7684 2.57816 24.5387C2.25439 24.2578 2.06927 23.8668 1.9674 23.6221C1.84799 23.3353 1.74682 23.0059 1.65941 22.6656C1.48361 21.9812 1.32943 21.1178 1.20138 20.1636C0.944409 18.2486 0.775269 15.8354 0.775269 13.4799C0.775269 12.24 0.822105 11.0398 0.903808 9.93113C1.01742 8.3893 1.19974 6.81262 1.42118 5.54868C1.53121 4.92059 1.65678 4.33543 1.79853 3.85843C1.8691 3.62097 1.9529 3.37865 2.05432 3.15905C2.1425 2.96811 2.3041 2.65849 2.57814 2.42074L2.92798 2.78738L2.57814 2.42074C2.84286 2.19107 3.16523 2.06108 3.38863 1.9823C3.64764 1.89097 3.95097 1.81026 4.27946 1.73781C4.93903 1.59233 5.78383 1.46203 6.75177 1.3525ZM25.676 8.54078C25.6654 8.44481 25.6546 8.34991 25.6434 8.25612L26.16 8.20038L25.6434 8.25612C25.5157 7.18032 25.3529 6.0475 25.1709 5.13476C25.0801 4.67968 24.982 4.26568 24.8771 3.93648L25.3745 3.79245L24.8771 3.93648C24.8247 3.77182 24.7674 3.61833 24.7045 3.48817C24.6425 3.36006 24.5652 3.23426 24.4727 3.15401L24.4726 3.15399C24.3613 3.05741 24.1952 2.98052 24.0013 2.91214C23.7983 2.84057 23.5411 2.77082 23.2368 2.70369C22.6276 2.56932 21.8235 2.44417 20.8762 2.33697C18.9814 2.12255 16.5106 1.97966 13.8753 1.97966C11.24 1.97966 8.7691 2.12255 6.87429 2.33697C5.92703 2.44417 5.12293 2.56932 4.51376 2.70369C4.20941 2.77082 3.95221 2.84057 3.74924 2.91214C3.55529 2.98054 3.38916 3.05743 3.27783 3.15402L3.27782 3.15403C3.17003 3.24755 3.0794 3.39929 3.00582 3.5586C2.93097 3.72067 2.86227 3.91524 2.79883 4.12871C2.67191 4.55581 2.55372 5.10084 2.44665 5.71203C2.23202 6.93715 2.05289 8.4813 1.94093 10.0006L1.42237 9.96587L1.94093 10.0006C1.86092 11.0864 1.81495 12.2633 1.81495 13.4799C1.81495 15.7951 1.98151 18.1662 2.23266 20.0378C2.35807 20.9724 2.50629 21.7954 2.66924 22.4297C2.7506 22.7465 2.83858 23.0278 2.93369 23.2562C3.0265 23.4791 3.14076 23.6865 3.27783 23.8054L2.928 24.1721L3.27783 23.8054C3.38916 23.902 3.55529 23.9789 3.74924 24.0473L3.56894 24.5122L3.74925 24.0473C3.95221 24.1189 4.2094 24.1886 4.51376 24.2557C5.12293 24.3901 5.92703 24.5153 6.87429 24.6224C8.7691 24.8369 11.24 24.9797 13.8753 24.9797C16.5106 24.9797 18.9814 24.8369 20.8763 24.6224C21.8235 24.5153 22.6276 24.3901 23.2368 24.2557C23.5411 24.1886 23.7983 24.1189 24.0013 24.0473C24.1952 23.9789 24.3613 23.902 24.4726 23.8054L24.4727 23.8054C24.5652 23.7252 24.6425 23.5994 24.7045 23.4713C24.7674 23.3411 24.8247 23.1876 24.8771 23.023L25.2858 23.1413L24.8771 23.023C24.982 22.6938 25.0801 22.2798 25.1709 21.8247C25.3529 20.912 25.5157 19.7793 25.6434 18.7036C25.6547 18.6082 25.6658 18.5116 25.6766 18.4139C25.6783 18.3984 25.6808 18.383 25.684 18.3677C25.693 18.3254 25.6981 18.2799 25.6985 18.2318C25.6986 18.2165 25.6994 18.2013 25.701 18.1862C25.8469 16.7846 25.9356 15.1696 25.9356 13.4799C25.9356 12.2649 25.8898 11.0895 25.8099 10.0049L25.676 8.54078Z" fill="#616161"/>
<path d="M6.75177 1.3525L6.7855 1.6506L6.75177 1.3525ZM20.9988 1.3525L21.0325 1.0544V1.0544L20.9988 1.3525ZM23.4711 1.73781L23.4065 2.03077L23.4711 1.73781ZM24.3619 1.98231L24.4617 1.69938L24.4617 1.69938L24.3619 1.98231ZM25.1723 2.42066L24.9757 2.64728L24.9757 2.64728L25.1723 2.42066ZM25.6486 3.07305L25.7694 3.34768L26.0541 3.22249L25.9187 2.94245L25.6486 3.07305ZM25.6486 3.07306L25.9187 2.94246L25.7928 2.68197L25.5279 2.79843L25.6486 3.07306ZM25.8719 3.64841L25.5861 3.73945L25.5861 3.73945L25.8719 3.64841ZM26.1923 4.94955L25.8981 5.00822V5.00822L26.1923 4.94955ZM26.6765 8.14464L26.3786 8.18V8.18L26.6765 8.14464ZM26.7081 8.42003L26.4099 8.45311L26.4113 8.46542L26.4137 8.47757L26.7081 8.42003ZM26.7378 8.69668L26.4379 8.70318L26.4381 8.71541L26.4394 8.72757L26.7378 8.69668ZM26.8467 9.93117L26.5475 9.9532L26.5475 9.95325L26.8467 9.93117ZM26.7378 18.2632L26.4394 18.2323L26.4381 18.2444L26.4378 18.2566L26.7378 18.2632ZM26.7082 18.539L26.4137 18.4815L26.4114 18.4937L26.41 18.5059L26.7082 18.539ZM26.6765 18.8151L26.3786 18.7797V18.7797L26.6765 18.8151ZM26.1923 22.01L26.4865 22.0686V22.0686L26.1923 22.01ZM25.8719 23.3111L25.5861 23.22L25.8719 23.3111ZM25.6486 23.8864L25.3785 23.7558V23.7558L25.6486 23.8864ZM24.8324 24.1825L25.0494 23.9754L24.6153 24.3895L24.8324 24.1825ZM25.1723 24.5387L25.3793 24.7559L25.5965 24.5488L25.3894 24.3317L25.1723 24.5387ZM24.3619 24.9771L24.2621 24.6942L24.2621 24.6942L24.3619 24.9771ZM23.4711 25.2216L23.4065 24.9287L23.4711 25.2216ZM20.9988 25.6069L20.965 25.3088H20.965L20.9988 25.6069ZM6.75177 25.6069L6.7855 25.3088H6.7855L6.75177 25.6069ZM4.27946 25.2216L4.34408 24.9287H4.34408L4.27946 25.2216ZM3.38864 24.9771L3.48841 24.6942H3.48841L3.38864 24.9771ZM2.57816 24.5387L2.77476 24.3121L2.77475 24.3121L2.57816 24.5387ZM1.9674 23.6221L2.24435 23.5068H2.24435L1.9674 23.6221ZM1.65941 22.6656L1.36884 22.7402L1.36884 22.7402L1.65941 22.6656ZM1.20138 20.1636L1.49872 20.1237L1.20138 20.1636ZM0.903808 9.93113L1.203 9.95318L1.203 9.95318L0.903808 9.93113ZM1.42118 5.54868L1.12568 5.49691L1.42118 5.54868ZM1.79853 3.85843L1.51096 3.77297L1.79853 3.85843ZM2.05432 3.15905L1.78196 3.03326H1.78196L2.05432 3.15905ZM3.38863 1.9823L3.28886 1.69938L3.38863 1.9823ZM4.27946 1.73781L4.34407 2.03077L4.27946 1.73781ZM25.6434 8.25612L25.6112 7.95786L25.3098 7.99039L25.3455 8.29148L25.6434 8.25612ZM25.676 8.54078L25.9748 8.51347L25.9742 8.50784L25.676 8.54078ZM26.16 8.20038L26.1921 8.49865L26.1278 7.90211L26.16 8.20038ZM25.6434 8.25612L25.3455 8.29148L25.3805 8.58623L25.6756 8.55439L25.6434 8.25612ZM25.1709 5.13476L24.8767 5.19343V5.19343L25.1709 5.13476ZM24.8771 3.93648L24.7937 3.64832L24.4978 3.734L24.5913 4.02752L24.8771 3.93648ZM24.8771 3.93648L24.5913 4.02751L24.6799 4.3059L24.9606 4.22464L24.8771 3.93648ZM24.7045 3.48817L24.9746 3.35757L24.9746 3.35757L24.7045 3.48817ZM24.4727 3.15401L24.6693 2.92735L24.6648 2.92366L24.4727 3.15401ZM24.4726 3.15399L24.276 3.38064L24.2804 3.38434L24.4726 3.15399ZM24.0013 2.91214L24.101 2.62922L24.101 2.62922L24.0013 2.91214ZM23.2368 2.70369L23.3014 2.41073L23.2368 2.70369ZM20.8762 2.33697L20.8425 2.63507L20.8762 2.33697ZM6.87429 2.33697L6.90802 2.63507L6.87429 2.33697ZM4.51376 2.70369L4.57838 2.99665L4.51376 2.70369ZM3.74924 2.91214L3.64948 2.62922L3.74924 2.91214ZM3.27783 3.15402L3.08101 2.92717L3.0708 2.93691L3.27783 3.15402ZM3.27782 3.15403L3.47464 3.38088L3.48485 3.37114L3.27782 3.15403ZM3.00582 3.5586L3.27818 3.68438L3.00582 3.5586ZM2.79883 4.12871L3.0864 4.21417V4.21417L2.79883 4.12871ZM2.44665 5.71203L2.74215 5.7638L2.44665 5.71203ZM1.94093 10.0006L1.92088 10.2999L2.21822 10.3199L2.24012 10.0227L1.94093 10.0006ZM1.94093 10.0006L2.24012 10.0227L2.26232 9.72148L1.96099 9.70129L1.94093 10.0006ZM2.23266 20.0378L1.93532 20.0777L2.23266 20.0378ZM2.66924 22.4297L2.37867 22.5044H2.37867L2.66924 22.4297ZM2.93369 23.2562L3.21064 23.1409L2.93369 23.2562ZM3.27783 23.8054L3.49488 24.0125L3.71202 23.7849L3.47442 23.5788L3.27783 23.8054ZM2.928 24.1721L2.71095 23.965L3.14504 24.3792L2.928 24.1721ZM3.27783 23.8054L3.47443 23.5788L3.2583 23.3913L3.06079 23.5983L3.27783 23.8054ZM3.74924 24.0473L4.02895 24.1558L4.14083 23.8673L3.84901 23.7644L3.74924 24.0473ZM3.74925 24.0473L3.84901 23.7644L3.57471 23.6676L3.46954 23.9388L3.74925 24.0473ZM4.51376 24.2557L4.57838 23.9628L4.51376 24.2557ZM6.87429 24.6224L6.84056 24.9205L6.87429 24.6224ZM20.8763 24.6224L20.91 24.9205L20.8763 24.6224ZM23.2368 24.2557L23.3014 24.5487L23.2368 24.2557ZM24.0013 24.0473L23.9015 23.7644L24.0013 24.0473ZM24.4726 23.8054L24.6694 24.0323L24.6797 24.0226L24.4726 23.8054ZM24.4727 23.8054L24.2759 23.5786L24.2656 23.5883L24.4727 23.8054ZM24.7045 23.4713L24.4344 23.3407L24.4344 23.3407L24.7045 23.4713ZM24.8771 23.023L24.9606 22.7348L24.6799 22.6536L24.5913 22.9319L24.8771 23.023ZM25.2858 23.1413L25.2024 23.4295L25.3693 22.8532L25.2858 23.1413ZM24.8771 23.023L24.5913 22.9319L24.4978 23.2255L24.7937 23.3111L24.8771 23.023ZM25.1709 21.8247L25.4651 21.8834L25.1709 21.8247ZM25.6434 18.7036L25.3455 18.6682L25.3455 18.6682L25.6434 18.7036ZM25.6766 18.4139L25.9748 18.4468V18.4468L25.6766 18.4139ZM25.684 18.3677L25.3905 18.3055L25.3905 18.3055L25.684 18.3677ZM25.6985 18.2318L25.3985 18.2297V18.2297L25.6985 18.2318ZM25.701 18.1862L25.9994 18.2172V18.2172L25.701 18.1862ZM25.8099 10.0049L26.1091 9.98284L26.1086 9.97757L25.8099 10.0049ZM13.8753 0.688281C11.1946 0.688281 8.67108 0.833391 6.71803 1.0544L6.7855 1.6506C8.71338 1.43243 11.2142 1.28828 13.8753 1.28828V0.688281ZM21.0325 1.0544C19.0795 0.833391 16.5559 0.688281 13.8753 0.688281V1.28828C16.5364 1.28828 19.0372 1.43243 20.965 1.6506L21.0325 1.0544ZM23.5357 1.44485C22.8622 1.29629 22.0061 1.16458 21.0325 1.0544L20.965 1.6506C21.9273 1.75948 22.7608 1.88836 23.4065 2.03077L23.5357 1.44485ZM24.4617 1.69938C24.187 1.60253 23.8709 1.51878 23.5357 1.44485L23.4065 2.03077C23.7283 2.10175 24.0188 2.17941 24.2621 2.26523L24.4617 1.69938ZM25.3689 2.19405C25.0598 1.92596 24.693 1.78096 24.4617 1.69938L24.2621 2.26523C24.4775 2.34118 24.7553 2.45612 24.9757 2.64728L25.3689 2.19405ZM25.9187 2.94245C25.8347 2.76873 25.6654 2.4513 25.3688 2.19404L24.9757 2.64728C25.1791 2.82376 25.3056 3.05274 25.3786 3.20365L25.9187 2.94245ZM25.2973 3.55524L25.7694 3.34768L25.5279 2.79843L25.0558 3.00599L25.2973 3.55524ZM25.5279 2.79843L25.0558 3.00599L25.2973 3.55524L25.7694 3.34768L25.5279 2.79843ZM26.1578 3.55738C26.0954 3.36153 26.0174 3.1465 25.9187 2.94246L25.3786 3.20365C25.4603 3.37275 25.5285 3.55856 25.5861 3.73945L26.1578 3.55738ZM26.4865 4.89087C26.3918 4.41622 26.2831 3.95069 26.1578 3.55737L25.5861 3.73945C25.7016 4.10214 25.8053 4.54301 25.8981 5.00822L26.4865 4.89087ZM26.9744 8.10928C26.8449 7.01807 26.6776 5.84912 26.4865 4.89087L25.8981 5.00822C26.0848 5.94462 26.25 7.09621 26.3786 8.18L26.9744 8.10928ZM27.0063 8.38695C26.9959 8.29347 26.9853 8.2009 26.9744 8.10928L26.3786 8.18C26.3893 8.27007 26.3997 8.36112 26.4099 8.45311L27.0063 8.38695ZM27.0377 8.69017C27.0353 8.57875 27.0234 8.46912 27.0025 8.36249L26.4137 8.47757C26.4279 8.55046 26.4362 8.62594 26.4379 8.70318L27.0377 8.69017ZM27.1459 9.90915C27.1144 9.48115 27.0776 9.06559 27.0362 8.66578L26.4394 8.72757C26.4801 9.12127 26.5164 9.53091 26.5475 9.9532L27.1459 9.90915ZM27.2753 13.4799C27.2753 12.2327 27.2282 11.0252 27.1459 9.9091L26.5475 9.95325C26.6288 11.0547 26.6753 12.2475 26.6753 13.4799H27.2753ZM27.0362 18.2941C27.1854 16.8533 27.2753 15.2029 27.2753 13.4799H26.6753C26.6753 15.1829 26.5864 16.8126 26.4394 18.2323L27.0362 18.2941ZM27.0026 18.5965C27.0234 18.4901 27.0353 18.3808 27.0377 18.2698L26.4378 18.2566C26.4361 18.3336 26.4279 18.4089 26.4137 18.4815L27.0026 18.5965ZM26.9744 18.8504C26.9853 18.7586 26.996 18.6658 27.0064 18.5721L26.41 18.5059C26.3998 18.5982 26.3893 18.6894 26.3786 18.7797L26.9744 18.8504ZM26.4865 22.0686C26.6776 21.1104 26.8449 19.9416 26.9744 18.8504L26.3786 18.7797C26.25 19.8634 26.0848 21.0149 25.8981 21.9513L26.4865 22.0686ZM26.1578 23.4021C26.283 23.0088 26.3918 22.5433 26.4865 22.0686L25.8981 21.9513C25.8053 22.4165 25.7016 22.8573 25.5861 23.22L26.1578 23.4021ZM25.9187 24.017C26.0174 23.813 26.0954 23.5979 26.1578 23.4021L25.5861 23.22C25.5285 23.4009 25.4603 23.5867 25.3785 23.7558L25.9187 24.017ZM25.3689 24.7654C25.6654 24.5081 25.8347 24.1907 25.9187 24.017L25.3785 23.7558C25.3056 23.9067 25.1791 24.1357 24.9757 24.3121L25.3689 24.7654ZM24.6153 24.3895L24.9552 24.7458L25.3893 24.3317L25.0494 23.9754L24.6153 24.3895ZM25.3894 24.3317L25.0494 23.9754L24.6153 24.3896L24.9552 24.7458L25.3894 24.3317ZM25.3793 24.7559C25.3863 24.7492 25.3917 24.7435 25.3951 24.7397C25.3968 24.7378 25.3981 24.7362 25.399 24.7353C25.3994 24.7348 25.3997 24.7344 25.3999 24.7342C25.4 24.734 25.4001 24.7339 25.4002 24.7339C25.4002 24.7338 25.4002 24.7338 25.4002 24.7338C25.4002 24.7338 25.4002 24.7338 25.4002 24.7338C25.4002 24.7338 25.4003 24.7338 25.4003 24.7338C25.4003 24.7338 25.4003 24.7338 25.4003 24.7338C25.4007 24.7333 25.3981 24.7363 25.3951 24.7397C25.3917 24.7434 25.3863 24.7492 25.3793 24.7559L24.9653 24.3216C24.9583 24.3283 24.9529 24.334 24.9495 24.3378C24.9478 24.3397 24.9465 24.3413 24.9456 24.3422C24.9452 24.3427 24.9449 24.3431 24.9447 24.3434C24.9446 24.3435 24.9445 24.3436 24.9444 24.3436C24.9444 24.3437 24.9444 24.3437 24.9444 24.3437C24.9444 24.3437 24.9443 24.3437 24.9443 24.3437C24.9443 24.3437 24.9443 24.3437 24.9443 24.3437H24.9443C24.9439 24.3442 24.9465 24.3412 24.9495 24.3378C24.9529 24.3341 24.9583 24.3283 24.9653 24.3216L25.3793 24.7559ZM24.4616 25.2601C24.693 25.1785 25.0598 25.0335 25.3689 24.7654L24.9757 24.3121C24.7553 24.5033 24.4775 24.6183 24.2621 24.6942L24.4616 25.2601ZM23.5357 25.5146C23.8708 25.4407 24.187 25.3569 24.4617 25.2601L24.2621 24.6942C24.0188 24.78 23.7283 24.8577 23.4065 24.9287L23.5357 25.5146ZM21.0325 25.905C22.0061 25.7948 22.8622 25.6631 23.5357 25.5146L23.4065 24.9287C22.7608 25.0711 21.9273 25.1999 20.965 25.3088L21.0325 25.905ZM13.8753 26.2711C16.5559 26.2711 19.0795 26.126 21.0325 25.905L20.965 25.3088C19.0372 25.527 16.5364 25.6711 13.8753 25.6711V26.2711ZM6.71804 25.905C8.67108 26.126 11.1946 26.2711 13.8753 26.2711V25.6711C11.2142 25.6711 8.71338 25.527 6.7855 25.3088L6.71804 25.905ZM4.21485 25.5146C4.88836 25.6631 5.74441 25.7948 6.71804 25.905L6.7855 25.3088C5.82326 25.1999 4.9897 25.0711 4.34408 24.9287L4.21485 25.5146ZM3.28888 25.2601C3.56352 25.3569 3.87969 25.4407 4.21485 25.5146L4.34408 24.9287C4.02226 24.8577 3.73177 24.78 3.48841 24.6942L3.28888 25.2601ZM2.38157 24.7653C2.69062 25.0335 3.0575 25.1785 3.28888 25.2601L3.48841 24.6942C3.27298 24.6182 2.99511 24.5033 2.77476 24.3121L2.38157 24.7653ZM1.69045 23.7374C1.79566 23.9901 2.00247 24.4364 2.38157 24.7653L2.77475 24.3121C2.50632 24.0792 2.34289 23.7434 2.24435 23.5068L1.69045 23.7374ZM1.36884 22.7402C1.45816 23.088 1.56347 23.4325 1.69045 23.7374L2.24435 23.5068C2.1325 23.2382 2.03547 22.9238 1.94997 22.591L1.36884 22.7402ZM0.904048 20.2035C1.03293 21.1639 1.18899 22.0401 1.36884 22.7402L1.94997 22.591C1.77822 21.9223 1.62593 21.0717 1.49872 20.1237L0.904048 20.2035ZM0.475269 13.4799C0.475269 15.8482 0.645228 18.2747 0.904048 20.2035L1.49872 20.1237C1.24359 18.2224 1.07527 15.8226 1.07527 13.4799H0.475269ZM0.604619 9.90908C0.52238 11.0251 0.475269 12.2326 0.475269 13.4799H1.07527C1.07527 12.2474 1.12183 11.0546 1.203 9.95318L0.604619 9.90908ZM1.12568 5.49691C0.902092 6.77313 0.71876 8.36011 0.604619 9.90908L1.203 9.95318C1.31608 8.41849 1.49739 6.85211 1.71668 5.60045L1.12568 5.49691ZM1.51096 3.77297C1.36455 4.26565 1.23665 4.86346 1.12568 5.49691L1.71668 5.60045C1.82577 4.97773 1.94901 4.4052 2.0861 3.94389L1.51096 3.77297ZM1.78196 3.03326C1.67229 3.27072 1.58378 3.52793 1.51096 3.77297L2.0861 3.94389C2.15442 3.714 2.2335 3.48657 2.32667 3.28483L1.78196 3.03326ZM2.38154 2.19413C2.05832 2.47456 1.8751 2.83159 1.78196 3.03326L2.32667 3.28483C2.4099 3.10462 2.54989 2.84242 2.77474 2.64734L2.38154 2.19413ZM3.14503 2.58028L2.79519 2.21364L2.36109 2.62784L2.71094 2.99448L3.14503 2.58028ZM2.36109 2.62784L2.71094 2.99448L3.14503 2.58028L2.79519 2.21364L2.36109 2.62784ZM3.28886 1.69938C3.05749 1.78097 2.69061 1.92599 2.38154 2.19413L2.77474 2.64734C2.9951 2.45616 3.27297 2.34119 3.4884 2.26523L3.28886 1.69938ZM4.21484 1.44485C3.87968 1.51878 3.56351 1.60253 3.28886 1.69938L3.4884 2.26523C3.73176 2.17941 4.02225 2.10175 4.34407 2.03077L4.21484 1.44485ZM6.71803 1.0544C5.74441 1.16458 4.88836 1.29629 4.21484 1.44485L4.34407 2.03077C4.98969 1.88836 5.82326 1.75948 6.7855 1.6506L6.71803 1.0544ZM25.3455 8.29148C25.3565 8.38445 25.3673 8.47855 25.3778 8.57372L25.9742 8.50784C25.9635 8.41108 25.9526 8.31537 25.9413 8.22076L25.3455 8.29148ZM26.1278 7.90211L25.6112 7.95786L25.6756 8.55439L26.1921 8.49865L26.1278 7.90211ZM25.6756 8.55439L26.1921 8.49865L26.1278 7.90211L25.6112 7.95785L25.6756 8.55439ZM24.8767 5.19343C25.0566 6.09525 25.2183 7.21939 25.3455 8.29148L25.9413 8.22076C25.8132 7.14126 25.6493 5.99975 25.4651 5.07608L24.8767 5.19343ZM24.5913 4.02752C24.6912 4.3414 24.7869 4.74306 24.8767 5.19343L25.4651 5.07608C25.3734 4.61631 25.2727 4.18997 25.163 3.84544L24.5913 4.02752ZM25.2911 3.50428L24.7937 3.64832L24.9606 4.22464L25.458 4.08061L25.2911 3.50428ZM24.9606 4.22464L25.458 4.08061L25.2911 3.50428L24.7937 3.64832L24.9606 4.22464ZM24.4344 3.61877C24.4889 3.73143 24.5412 3.8703 24.5913 4.02751L25.163 3.84544C25.1082 3.67333 25.046 3.50522 24.9746 3.35757L24.4344 3.61877ZM24.2761 3.38063C24.3217 3.42021 24.3776 3.50135 24.4344 3.61877L24.9746 3.35757C24.9074 3.21876 24.8086 3.04831 24.6692 2.92739L24.2761 3.38063ZM24.2804 3.38434L24.2805 3.38436L24.6648 2.92366L24.6648 2.92364L24.2804 3.38434ZM23.9015 3.19507C24.0882 3.26089 24.2093 3.32274 24.276 3.3806L24.6692 2.92738C24.5133 2.79208 24.3022 2.70016 24.101 2.62922L23.9015 3.19507ZM23.1721 2.99665C23.4698 3.06231 23.7142 3.12901 23.9015 3.19507L24.101 2.62922C23.8824 2.55213 23.6124 2.47933 23.3014 2.41073L23.1721 2.99665ZM20.8425 2.63507C21.7841 2.74162 22.5769 2.86536 23.1721 2.99665L23.3014 2.41073C22.6783 2.27329 21.8629 2.14671 20.91 2.03887L20.8425 2.63507ZM13.8753 2.27966C16.5008 2.27966 18.9603 2.42207 20.8425 2.63507L20.91 2.03887C19.0026 1.82303 16.5203 1.67966 13.8753 1.67966V2.27966ZM6.90802 2.63507C8.79025 2.42207 11.2498 2.27966 13.8753 2.27966V1.67966C11.2302 1.67966 8.74795 1.82303 6.84056 2.03887L6.90802 2.63507ZM4.57838 2.99665C5.17359 2.86536 5.96645 2.74162 6.90802 2.63507L6.84056 2.03887C5.88761 2.14671 5.07226 2.27329 4.44915 2.41073L4.57838 2.99665ZM3.84901 3.19507C4.03633 3.12901 4.28068 3.06231 4.57838 2.99665L4.44915 2.41073C4.13813 2.47933 3.8681 2.55212 3.64948 2.62922L3.84901 3.19507ZM3.47442 3.38063C3.54112 3.32277 3.66232 3.2609 3.84901 3.19507L3.64948 2.62922C3.44826 2.70017 3.2372 2.7921 3.08123 2.92742L3.47442 3.38063ZM3.48485 3.37114L3.48486 3.37114L3.0708 2.93691L3.0708 2.93691L3.48485 3.37114ZM3.27818 3.68438C3.34715 3.53505 3.41615 3.43119 3.47442 3.38063L3.08123 2.92742C2.92391 3.06391 2.81165 3.26353 2.73346 3.43282L3.27818 3.68438ZM3.0864 4.21417C3.1476 4.00824 3.21158 3.82858 3.27818 3.68438L2.73346 3.43282C2.65036 3.61276 2.57694 3.82223 2.51126 4.04325L3.0864 4.21417ZM2.74215 5.7638C2.84829 5.15797 2.96414 4.62558 3.0864 4.21417L2.51126 4.04325C2.37968 4.48604 2.25916 5.04372 2.15115 5.66026L2.74215 5.7638ZM2.24012 10.0227C2.35155 8.5105 2.52967 6.97664 2.74215 5.7638L2.15115 5.66026C1.93437 6.89766 1.75423 8.45211 1.64174 9.97857L2.24012 10.0227ZM1.40232 10.2652L1.92088 10.2999L1.96099 9.70129L1.44243 9.66655L1.40232 10.2652ZM1.96099 9.70129L1.44243 9.66655L1.40231 10.2652L1.92088 10.2999L1.96099 9.70129ZM2.11495 13.4799C2.11495 12.2707 2.16065 11.1011 2.24012 10.0227L1.64174 9.97857C1.5612 11.0716 1.51495 12.2559 1.51495 13.4799H2.11495ZM2.52999 19.9979C2.28069 18.14 2.11495 15.7823 2.11495 13.4799H1.51495C1.51495 15.8079 1.68233 18.1923 1.93532 20.0777L2.52999 19.9979ZM2.95981 22.3551C2.80091 21.7365 2.65457 20.9262 2.52999 19.9979L1.93532 20.0777C2.06157 21.0185 2.21168 21.8543 2.37867 22.5044L2.95981 22.3551ZM3.21064 23.1409C3.12311 22.9307 3.03926 22.6644 2.95981 22.3551L2.37867 22.5044C2.46195 22.8286 2.55406 23.125 2.65674 23.3716L3.21064 23.1409ZM3.47442 23.5788C3.39309 23.5083 3.30054 23.3568 3.21064 23.1409L2.65674 23.3716C2.75247 23.6015 2.88843 23.8648 3.08124 24.032L3.47442 23.5788ZM3.14505 24.3792L3.49488 24.0125L3.06078 23.5983L2.71095 23.965L3.14505 24.3792ZM3.06079 23.5983L2.71095 23.965L3.14504 24.3792L3.49488 24.0125L3.06079 23.5983ZM3.84901 23.7644C3.66232 23.6985 3.54111 23.6367 3.47443 23.5788L3.08124 24.032C3.2372 24.1673 3.44827 24.2593 3.64948 24.3302L3.84901 23.7644ZM3.84865 24.6207L4.02895 24.1558L3.46954 23.9388L3.28924 24.4037L3.84865 24.6207ZM3.46954 23.9388L3.28924 24.4037L3.84865 24.6207L4.02895 24.1558L3.46954 23.9388ZM4.57838 23.9628C4.28067 23.8971 4.03632 23.8304 3.84901 23.7644L3.64948 24.3302C3.8681 24.4073 4.13813 24.4801 4.44915 24.5487L4.57838 23.9628ZM6.90802 24.3243C5.96645 24.2178 5.17359 24.0941 4.57838 23.9628L4.44915 24.5487C5.07227 24.6861 5.88761 24.8127 6.84056 24.9205L6.90802 24.3243ZM13.8753 24.6797C11.2498 24.6797 8.79025 24.5373 6.90802 24.3243L6.84056 24.9205C8.74795 25.1364 11.2302 25.2797 13.8753 25.2797V24.6797ZM20.8425 24.3243C18.9603 24.5373 16.5008 24.6797 13.8753 24.6797V25.2797C16.5203 25.2797 19.0026 25.1364 20.91 24.9205L20.8425 24.3243ZM23.1722 23.9628C22.5769 24.0941 21.7841 24.2178 20.8425 24.3243L20.91 24.9205C21.8629 24.8127 22.6783 24.6861 23.3014 24.5487L23.1722 23.9628ZM23.9015 23.7644C23.7142 23.8304 23.4699 23.8971 23.1722 23.9628L23.3014 24.5487C23.6124 24.4801 23.8824 24.4073 24.101 24.3302L23.9015 23.7644ZM24.276 23.5788C24.2094 23.6367 24.0882 23.6986 23.9015 23.7644L24.101 24.3302C24.3022 24.2593 24.5133 24.1674 24.6692 24.0321L24.276 23.5788ZM24.2656 23.5883L24.2656 23.5883L24.6797 24.0226L24.6797 24.0225L24.2656 23.5883ZM24.4344 23.3407C24.3776 23.4581 24.3217 23.5392 24.2761 23.5788L24.6692 24.032C24.8086 23.9111 24.9074 23.7407 24.9746 23.6019L24.4344 23.3407ZM24.5913 22.9319C24.5412 23.0892 24.4889 23.228 24.4344 23.3407L24.9746 23.6019C25.046 23.4542 25.1082 23.2861 25.163 23.114L24.5913 22.9319ZM25.3693 22.8532L24.9606 22.7348L24.7937 23.3111L25.2024 23.4295L25.3693 22.8532ZM24.7937 23.3111L25.2024 23.4295L25.3693 22.8532L24.9606 22.7348L24.7937 23.3111ZM24.8767 21.7661C24.7869 22.2164 24.6912 22.6181 24.5913 22.9319L25.163 23.114C25.2727 22.7695 25.3734 22.3432 25.4651 21.8834L24.8767 21.7661ZM25.3455 18.6682C25.2183 19.7402 25.0565 20.8643 24.8767 21.7661L25.4651 21.8834C25.6493 20.9598 25.8132 19.8184 25.9413 18.7389L25.3455 18.6682ZM25.3784 18.381C25.3677 18.4779 25.3567 18.5736 25.3455 18.6682L25.9413 18.7389C25.9527 18.6427 25.9639 18.5453 25.9748 18.4468L25.3784 18.381ZM25.3905 18.3055C25.3852 18.3305 25.3812 18.3557 25.3784 18.381L25.9748 18.4468C25.9754 18.4411 25.9763 18.4355 25.9775 18.4298L25.3905 18.3055ZM25.3985 18.2297C25.3983 18.2576 25.3953 18.2831 25.3905 18.3055L25.9775 18.4298C25.9907 18.3678 25.998 18.3021 25.9985 18.2339L25.3985 18.2297ZM25.4026 18.1551C25.4 18.1799 25.3987 18.2048 25.3985 18.2297L25.9985 18.2339C25.9985 18.2283 25.9988 18.2228 25.9994 18.2172L25.4026 18.1551ZM25.6356 13.4799C25.6356 15.1595 25.5474 16.7641 25.4026 18.1551L25.9994 18.2172C26.1464 16.805 26.2356 15.1796 26.2356 13.4799H25.6356ZM25.5107 10.0269C25.59 11.1042 25.6356 12.2723 25.6356 13.4799H26.2356C26.2356 12.2576 26.1895 11.0747 26.1091 9.98284L25.5107 10.0269ZM25.3773 8.56809L25.5111 10.0322L26.1086 9.97757L25.9748 8.51347L25.3773 8.56809Z" fill="#616161" mask="url(#path-1-outside-1_34_311)"/>
<path d="M21.0004 21L21.0003 15.0031M21.0003 15.0031L15.0003 15M21.0003 15.0031L11.0002 25.0031" stroke="#616161" stroke-width="1.5"/>
<path d="M6.99866 14.0016L6.99872 19.9985M6.99872 19.9985L12.9987 20.0016M6.99872 19.9985L16.9988 9.99854" stroke="#616161" stroke-width="1.5"/>
</svg>
